<?xml version="1.0" encoding="utf-8"?>
<!-- Generator: Adobe Illustrator 18.1.0, SVG Export Plug-In . SVG Version: 6.00 Build 0)  -->
<!DOCTYPE svg PUBLIC "-//W3C//DTD SVG 1.1//EN" "http://www.w3.org/Graphics/SVG/1.1/DTD/svg11.dtd">
<svg version="1.1" id="Capa_1" xmlns="http://www.w3.org/2000/svg" xmlns:xlink="http://www.w3.org/1999/xlink" x="0px" y="0px"
	 viewBox="-83 174.2 444.8 444.8" enable-background="new -83 174.2 444.8 444.8" xml:space="preserve">
<g>
	<path fill="#FFFFFF" d="M269,370.9L82.9,185c-6.9-7.2-15.4-10.8-25.7-10.8s-18.8,3.6-25.7,10.8L9.8,206.4c-7,7-10.6,15.6-10.6,25.7
		c0,9.9,3.5,18.6,10.6,26l138.8,138.5L9.8,535.3c-7,7-10.6,15.6-10.6,25.7c0,9.9,3.5,18.6,10.6,26l21.7,21.4
		c7,7,15.6,10.6,25.7,10.6c10.1,0,18.7-3.5,25.7-10.6L269,422.6c7-7.4,10.6-16.1,10.6-26C279.6,386.5,276.1,377.9,269,370.9z"/>
</g>
</svg>
