<?xml version="1.0" encoding="utf-8"?>
<!-- Generator: Adobe Illustrator 18.1.0, SVG Export Plug-In . SVG Version: 6.00 Build 0)  -->
<!DOCTYPE svg PUBLIC "-//W3C//DTD SVG 1.1//EN" "http://www.w3.org/Graphics/SVG/1.1/DTD/svg11.dtd">
<svg version="1.1" id="Capa_1" xmlns="http://www.w3.org/2000/svg" xmlns:xlink="http://www.w3.org/1999/xlink" x="0px" y="0px"
	 viewBox="-84 175.5 442.5 442.5" enable-background="new -84 175.5 442.5 442.5" xml:space="preserve">
<path fill="#FFFFFF" d="M350.5,274l-38.8-38.8c-5.3-5.3-11.8-8-19.4-8c-7.6,0-14.1,2.7-19.4,8L85.6,422.7L1.7,338.5
	c-5.3-5.3-11.8-8-19.4-8c-7.6,0-14.1,2.7-19.4,8L-76,377.3c-5.3,5.3-8,11.8-8,19.4c0,7.6,2.7,14.1,8,19.4L27.3,519.5l38.8,38.8
	c5.3,5.3,11.8,8,19.4,8c7.6,0,14.1-2.7,19.4-8l38.8-38.8l206.7-206.7c5.3-5.3,8-11.8,8-19.4C358.5,285.8,355.9,279.3,350.5,274z"/>
</svg>
